/* XPM */
static char *result[] = {
/* columns rows colors chars-per-pixel */
"61 61 190 2 ",
"   c #1E2602",
".  c #252C06",
"X  c #2B3405",
"o  c #2F3805",
"O  c #2E360A",
"+  c #303706",
"@  c #333C05",
"#  c #383E05",
"$  c #333B0B",
"%  c #31340F",
"&  c #373A18",
"*  c #343915",
"=  c #374006",
"-  c #3B4306",
";  c #3E4905",
":  c #3C4509",
">  c #3E4809",
",  c #3B4215",
"<  c #434B06",
"1  c #454D0A",
"2  c #484F0A",
"3  c #475307",
"4  c #4B5407",
"5  c #4E5907",
"6  c #4B530A",
"7  c #4E580B",
"8  c #525706",
"9  c #545B07",
"0  c #585F07",
"q  c #51570B",
"w  c #545B0A",
"e  c #595E0A",
"r  c #444A16",
"t  c #484E13",
"y  c #42461C",
"u  c #44491C",
"i  c #4C5214",
"p  c #4B511C",
"a  c #515612",
"s  c #555814",
"d  c #5A5F12",
"f  c #576107",
"g  c #5D6407",
"h  c #56600A",
"j  c #5C630B",
"k  c #5F680B",
"l  c #5E6312",
"z  c #5E621B",
"x  c #606707",
"c  c #636B07",
"v  c #686F07",
"b  c #61670C",
"n  c #646C0C",
"m  c #686F0C",
"M  c #6B7307",
"N  c #67700B",
"B  c #6C730C",
"V  c #6F780D",
"C  c #70770E",
"Z  c #737B0D",
"A  c #787F0F",
"S  c #616612",
"D  c #656B12",
"F  c #696E12",
"G  c #62671C",
"H  c #65691B",
"J  c #696D1A",
"K  c #677111",
"L  c #6C7312",
"P  c #6F7811",
"I  c #6E731C",
"U  c #707613",
"Y  c #747B12",
"T  c #787F13",
"R  c #71751B",
"E  c #757B1A",
"W  c #797E1A",
"Q  c #464A21",
"!  c #4A4D25",
"~  c #47482D",
"^  c #4A4D28",
"/  c #4E502B",
"(  c #5B5F20",
")  c #53552C",
"_  c #565929",
"`  c #595B28",
"'  c #525331",
"]  c #5F5F33",
"[  c #5D5E3C",
"{  c #5E6023",
"}  c #5D603C",
"|  c #656727",
" . c #676B23",
".. c #62632A",
"X. c #6B6C2C",
"o. c #6A6B28",
"O. c #6E7123",
"+. c #797E23",
"@. c #73742B",
"#. c #7B7E28",
"$. c #76782B",
"%. c #656334",
"&. c #696736",
"*. c #63633D",
"=. c #6A6A3A",
"-. c #6C6A31",
";. c #706F30",
":. c #6E7039",
">. c #737434",
",. c #7B7B35",
"<. c #73723C",
"1. c #7A7B3B",
"2. c #605F45",
"3. c #616140",
"4. c #686841",
"5. c #696549",
"6. c #6C6C4C",
"7. c #706C4E",
"8. c #716C44",
"9. c #747443",
"0. c #7C7B44",
"q. c #7D7C4B",
"w. c #7A764D",
"e. c #726E54",
"r. c #767154",
"t. c #787756",
"y. c #7D7A54",
"u. c #7B725B",
"i. c #7E7A5C",
"p. c #7D7661",
"a. c #7F7960",
"s. c #807F41",
"d. c #817D54",
"f. c #847E5C",
"g. c #847C65",
"h. c #77800E",
"j. c #7A820E",
"k. c #778011",
"l. c #7B8212",
"z. c #7F8814",
"x. c #7B8219",
"c. c #7D8220",
"v. c #81880F",
"b. c #808612",
"n. c #828913",
"m. c #80861E",
"M. c #84843E",
"N. c #848243",
"B. c #85834A",
"V. c #858253",
"C. c #888750",
"Z. c #848359",
"A. c #8A845F",
"S. c #8D8B53",
"D. c #928D5E",
"F. c #868163",
"G. c #898462",
"H. c #8D8865",
"J. c #87826A",
"K. c #8B836A",
"L. c #8F896B",
"P. c #918C64",
"I. c #91856E",
"U. c #918B6C",
"Y. c #8C8470",
"T. c #948B75",
"R. c #988C76",
"E. c #968C79",
"W. c #9B8D7C",
"Q. c #928775",
"!. c #969175",
"~. c #989270",
"^. c #97927C",
"/. c #9C927D",
"(. c #A1987E",
"). c #9E9482",
"_. c #9F9983",
"`. c #A29684",
"'. c #A39986",
"]. c #A89B86",
"[. c #A59C89",
"{. c #A99D8B",
"}. c #A7A089",
"|. c #ACA18E",
" X c #B0A48F",
".X c #AEA391",
"XX c #B2A593",
"oX c #B5A997",
"OX c #B6AA99",
"+X c None",
/* pixels */
"+X+X+X+X+X+X+X+X+X+X+X+X+X+X+X+X+X+X+X+X+X+X+X+X+X+X+X+X+X+X+X+X+X+X+X+X+X+X+X+X+X+X+X+X+X+X+X+X+X+X+X+X+X+X+X+X+X+X+X+X+X",
"n 4 O Y.{.].'.4.$ '.[.) * '.E.].`.`.d.I A j.B j 0 j 7 $ i.`.].{.OX|.'.[.'.'...7 !.'.).).'.E.` i.XX[.G.8 x n B l.j.j.A N +X",
"x j 2 ).].`.{.=.t '.`.t ) ).'..X].A.F N k.h.n g c n 0 r T.`.{.[..X.X[.).'.`.W.s ..L.[.`.`.p.D <.XX'.H.s n N Y Y z.C C N +X",
"b n b F.[./..Xq.H `.T.w i g.XX.XP.x.Z B C j.B n Y Y n ] `.'.[.[.[.[.[.[.).`.'.K.a j 1.!.T.-.N C P.)./.D n B C B j c n j +X",
"0 b n J /.E.XXB.Y U.V.c k X.}.U.W l.l.Z j.j.h.k.A A B S T.`.].[.].'.[..XE.`.)./.>.n B Y X.B C j.W U.1.L B C C B Y C j 9 +X",
"w 0 n C $.E..XN.C N D L c c <.I C B j.j.j.l.l.Y C T U m ..`.`.[.].`.[..XE.E.).g.R n C n n B B C l.Y T c n C n N b j 9 3 +X",
"< 3 j N K $.V.F N V Y C N n n M n B B C V B n n N C U B 7 t.`.`.).`.`..X).u.%.a j j n C N n N B C C B n n m n b < $ - ; +X",
"X = g n N B C N v B C j.C N N B N m m n N c b b m N B L w t ).).T.`.Q.u.&.z n 0 0 n m M n n N Y C C U P n m n 0 # u Q * +X",
"u.) 6 j C j.j.A N B Z l.V k.C C B n n n b e n m C V C F 2 < 7.8.1.s.;.J L C C v n N M M m N Z C n.j.j.B M v N 0 - F.}.).+X",
"{.}.t.d B Y B A A A h.V j.Z j.A n K n c n b B C B A L n q a O.I +.#.E Y A Z C B m V B C l.V h.l.V h.j.j.Z B B h o K..X[.+X",
"[.[.[.y.b j.n Y N h.C B A Y A h.n B Y B m n T C Y W n j d z z H R m.E Y x.v.C A B C M C A V A z.h.v.j.A B j.h.j = J.oX|.+X",
"[..X'.[.V.m 0 x n n n B V B C n n c C Z A A C T Y Y U I F L L J E m.x.n.z.n.l.A C V B B Z j.j.z.l.C B Y Y Y h.j - E.`..X+X",
"[.}.'.{.).:.@ 3 g N n x n N N v c n m C j.b.C m n U L C S U U I E W x.n.z.A T A A N B C Z A A Z Z Z c j N n h.C P '.).`.+X",
"'.|.`..X`.e.X < N l.C n n N N n x n n j U A Y m x C C x.C T W C W Y Y m.Y Y Z Z C V v B m C Z A Z n j 0 n j C j.V S.[.'.+X",
"_.{.`..X|.& X 3 n B B B N N C n x n N j b C A T C n x.T m E T U W Y U Y T C U B B n n n N T A l.Z h 7 j g b V B l.C ,./.+X",
"F.).`..Xi.@ @ h N B Z n B Y Z C n m N n n L A Z L C U x.T U U U Y U B U z.z.T U B m g j n N N B n N l l x b n V Z h.V Y +X",
"P C.'.'.G < j k j V Z n K x.W U K B P m n B Y Y C L b E x.l.L P E x.T x.Y Y T U B c j x j m Z B B F n I T N m B m m N n +X",
": 3  .@.B k P k j L N S L Y W P U I P F L K m N U m L l.x.W U I P P Y Y C B m U C n j F n U B n Y F m P L L n N b 4 ; @ +X",
"/ u 1 c C l.B N j b n L b x.Y K S D F F P n L n m Y m R m.Y Y F P N V V B U B n K B F Y Y C N B B C L Y b S 9 6 < - X ^ +X",
"[.T.g.w.I N j k k D k L K B n F S F K L L U K K F U Y Y Y B I n N Y C A C N F b n K B Y x.B n x B B B B B n < X $ } !.XX+X",
"{.`.`.`.q.5 h j D K F n L K F S S n P L Y P K P K P P P B B F N h.h.C M m m K n n F L N P L B n x C T N M B # Q /. X|. X+X",
"{.].`.(._.i w j k k k k K B B m K P Y Y P L F K P N B Y T U B Y Z Z h.Z m N b j j j K P U U C m n T T Y B m # 3.I.]. X X+X",
"XX{.XXR.).| L B k h l k L n L P N m Y Y L L L b S n B Y A C Y C Z Z C A B P j j k b U B B C C B B n Z A C n - g.R.I.{.oX+X",
".X.XOX].).l N L j j S k L Y U Y m D V B Y P N k F n P l.l.Y A N Z Z v C C B j j n D Y U U Z Y B B m C l.T B e R.(./.T.{.+X",
"XX.XOXXX^.Y N x c N P B Y P P C m D m N Y N v n B T Y l.B Y j.n N N v A N c c P Y Y Y Y U B n m m v C A A Z M X._._.`./.+X",
"{..XOXOX!.Y l.T Y U x.x.P n m P C Y N B j.A A C l.n.z.Z Z V k.Z B N x N C l.l.Y x.l.P m m L n n B B C j.C C M b d.'.`.`.+X",
"`.{.oXOXf.R Y x.x.Y T T Y N b n n c x N C Y b.b.j.z.l.C N n B B v N c v A j.j.Y Y l.E F x n F x m B Z B B B B x a /.`.`.+X",
"'.'.XXOXw.W x.n.z.Y l.U Y C B c n n B C j.j.n.j.l.A Y A Z n v N x M g M h.z.l.Y l.E T W K D N n c B Y B B B B n 6 *.'.`.+X",
"'.'..XOXE.W Y n.x.Y Y B T Z m n n Y B A A v.v.T A C Z j.C M v M M M h.j.A b.Y P P U x.E P K n n n N V h.A C C h - y /.`.+X",
"_._.{.|.f.+.n.n.n.U F P Y C B m n C B C Z v.v.b.A C C j.M B x V Z Z M Z C N m P P L E #.k.B N m N N l.Z Z A B 4 @ 3.`.`.+X",
"'._.[._.x.x.n.m.P n n m C m C B n n Z Z j.v.j.C B Z B C C C N B M Z V M v M l.z.B Y U C C A A B C C A A l.T g < $ K.`.`.+X",
"_.[.'.A.l.B Y C B m n C U m c B B v M M Z h.Z B h.h.B v B M C B V M B Z M Z h.B l.l.B l.j.Z h.l.l.j.j.T A l.N j %.).`.`.+X",
"[.Q.<.K B n N V N m N h.Z N n m m m v Z j.A C v Z A Z v m N B n B C v.v.A j.A P Y V Y C l.Y C j.n.v.Z B C Z A Y g.)./.`.+X",
"e.z n N C Z A C C B N j.C A v c b m v n A j.C v m A Z Z M v M m B C A A z.C c n j n C C B n n B b.l.A N v m N C E V.).).+X",
"b j n B N n n C C B B M C m m n b b Z A A A m n m A C M C B N n Z v.Z A C A n c 9 0 x x b n P K B Y j.T N m m B B C X.&.+X",
"0 n c c B B B C C B v n c m n N n n m C C v b v B C v m N B B N M A v.v.l.B b b j j j 0 j F m I T C T Z B N B B N N 9 g +X",
"b e n Y Y C C Z M B n n x n m U L b b C m C F m C m v n n C A C j.j.n.b.Y m L j q 0 0 j 9 w F I F F U U C N C b n g 9 k +X",
"e j h n B Z B C B N n N n L N n n b b C L n b n B C C C C C B A A n.n.Z U B n 0 w d w j D l G H H S n m C N V N j 9 8 4 +X",
"1 3 j N k.C v B N V B n F b D b b b n n n b b b Z C C m m m v A l.Y Z m L m m b j S j S l z H d l S F m B Z B b g 9 2 < +X",
"X O - 5 B A N B V V V n j j l S l b n n b x n n C B B n n v N T j.C C m b j n D x P P S j l l z z S D K C j.l.n j - + X +X",
"2.e.g.H.$.Z C C B L L k k l h J D J F Z U j e b N V n c c j x B N n n b b 0 l k D K L n e s l l l S I C m C B k @ X . ~ +X",
"'./.R.'.q.A Y N N n D S D D l D D F m C B x x e n N n n B v C N n n n k l l e j D D D D D l d D S D I j n b < X O & 5.W.+X",
"E.L./. X/.F n j k D S k F K K l b F F m n x e j n B N P V B C C M m n S j w 9 d D D n K K S S l S D K k j 9 $ X ' p.).).+X",
"T./..XXX.X-.Y m k K L L K I K S S D n b n e 8 j x B Y B B Z C M N n n N w a s w F F n F R F D D D P F l j 6 $ 5.K.).`.].+X",
"T..XXX.X|.i.B N n m F I P E F S D F I n L c j N Y A B B C B j.Z j.B B B j q l j n b F L I U N F P l.B N 0 < , T.)._.'.(.+X",
"].XX].].`.T.I Y B D n m I Y I R U U F B j j j Y z.Z B B B C C C C N m B b j n F J J n b S n L m B l.Z V j : / ).).'.].W.+X",
".X[.].`.`.'.<.A B n F F F P U W U U j x e j B A j.A Z M N B C Y B U U B j e F F b j j D j b L B Y z.j.k.j @ 3.).`.`.`.`.+X",
"'.'.`.].[.`.f.T C m B F n m U I S D j g e g B Y l.j.C B N N V l.z.T B B b q k F b S d b D j F B Z Z h.l.j @ 7.'.`.].`.].+X",
")._.{.].I.N.x.h.h.N j n D S n b n m x j x x N A j.z.C B N B B C l.Y n c n 0 l D I I k l n x n B Y T Z j.j @ f.`.`.[.[.{.+X",
")._.T.9.R Z B Z Z B B n n n b j b W m x n A n j.Z n.C C V j.Y C C Y P n b n b D P J F D S n n U Z l.j.C 9 $ I.`.`.].[.XX+X",
"E.u. .j C C N N N B A A Y B b v n b 7 3 7 3 9 b N C Z A B B Z b.C Y F F n b S S I R C m m n m B z.l.A C w * W.).`.[.XX{.+X",
"Q.` e n V C m m n v A Z Y N b b 4 @ + & *.Q $ : 4 B B m k N h.j.V n N b n n b n n N B C C C B Z T Z B n 5 , ).`.`..XXX`.+X",
"u.e n Z C n n N c N T C C n 4 @ o X *.W.`./.K.e.] H F j j c Z l.j.U K m Y n Y V N V A A h.j.v.j.l.A B n j z )._.].XXXX).+X",
"%.j x N C l.A V C Z Y Y l.5 @ X Q K.'.`.W.R.T.R././. .0 f g n n n B N B Y A A l.A B A B B A v.j.j.Y N N D J I._.XXXX.XE.+X",
"d n g C A A j.z.z.j.j.l.k.< o 5._.'.{.W.W.].|.oXOX{.H j 9 w 7 - < B c N V B B Z Y T C N N B Z Z C A B B N B R N.U.'..Xg.+X",
": j N n A j.j.j.v.B C l.P < u [.].].{.W.XXOXOXOXXX|.H j < = = o r | k M B C l.h.b.j.N v N B V B C l.l.Z A h.j.k.D _ 6.r +X",
"^.D.K 0 n P j.Z Y h P l.7 = 6.'.{.[.].{.OXOXOXoXXX|.R 0 ; X ^ r./.T.>.k B C l.n.l.N e k n B h.z.n.z.l.C v.b.j.Z N 6 7.J.+X",
"{.|.q.+ p 0 k.N 4 ; 1.N ; O T._.].'.[.XXoXoXoXoX{.'.W 9 = [ '..X.X/.E.z k C h.l.0 = X i h N V j.n.z.j.Z z.j.A A l.l.^.}.+X",
"N.1._ O E.y.F j > ) }.O.o , _._.`.`.`.[.[.[.].'.[.M.N < $ i.|..XoX{.T.L.l N N j = o ' T.=.j S j 9 j N A B j.j.j.n.v.1.N.+X",
"B 5 @ / `.'.Z.2 X r..XZ.X 2._.).[.).`.[..X'.R.G.>.V n @ u T.'.XXoX.XT.[.f.k f $ X 5.`.'./.@.3 @ O q J N x N j.v.j.h.V B +X",
"n < . 7.].`.[.%.X T..XF.  J.).).).[.[.H.1.+.F e j n 5 o [ ).'.XXoX{./.].'.9.9 ; ! |.oX|.{.F.i o } T.V.f j N Z n.j.h.C B +X"
};
