/* XPM */
static char *result[] = {
/* columns rows colors chars-per-pixel */
"61 61 139 2 ",
"   c gray5",
".  c gray8",
"X  c #1B1B1B",
"o  c #252525",
"O  c #2A2A2A",
"+  c #333333",
"@  c #3B3B3B",
"#  c #444444",
"$  c #4B4B4B",
"%  c #535353",
"&  c #5B5B5B",
"*  c #646464",
"=  c #6A6A6A",
"-  c #727272",
";  c #7B7B7B",
":  c #00ACA0",
">  c #02B3A4",
",  c #09B6A7",
"<  c #00B6A8",
"1  c #0DB6A9",
"2  c #02BBAB",
"3  c #0CB9AC",
"4  c #16B7AC",
"5  c #1BB6AB",
"6  c #0ABFB1",
"7  c #24BCB1",
"8  c #418783",
"9  c #02C3B3",
"0  c #0BC4B5",
"q  c #02C8B7",
"w  c #02CDBD",
"e  c #0BCCBD",
"r  c #14C2B5",
"t  c #1CC1B4",
"y  c #13CBBF",
"u  c #1ACABD",
"i  c #2CC0B6",
"p  c #26C5B9",
"a  c #2CC5BC",
"s  c #35C3BA",
"d  c #38C7BF",
"f  c #0DCFC0",
"g  c #02D3C4",
"h  c #02DBCB",
"j  c #0CDCCE",
"k  c #14D0C1",
"l  c #1BD0C4",
"z  c #13DACD",
"x  c #01DED0",
"c  c #17DED0",
"v  c #25CEC3",
"b  c #2ECEC1",
"n  c #30CFC4",
"m  c #28D0C3",
"M  c #29D7CA",
"N  c #25DCCF",
"B  c #2FDACD",
"V  c #34D1C5",
"C  c #3CD1C6",
"Z  c #3BD1C8",
"A  c #25DED3",
"S  c #30DDD3",
"D  c #3CDDD4",
"F  c #03E1D4",
"G  c #0AE3D7",
"H  c #03E5D8",
"J  c #14E1D5",
"K  c #1CE5DB",
"L  c #2BE0D5",
"P  c #2CE5DC",
"I  c #34E0D5",
"U  c #3DE2D7",
"Y  c #34E5DB",
"T  c #37EAE1",
"R  c #3EEEE7",
"E  c #41C9C2",
"W  c #44D4CB",
"Q  c #4BD4CB",
"!  c #40D9CF",
"~  c #54D4CC",
"^  c #5FD4CF",
"/  c #40DBD1",
"(  c #53DDD3",
")  c #5EDED7",
"_  c #5FDDD8",
"`  c #63D1CA",
"'  c #66DDD7",
"]  c #6ADAD3",
"[  c #7BDCD8",
"{  c #41E0D7",
"}  c #42E8DE",
"|  c #5CE0D6",
" . c #54E1DA",
".. c #5DE5DD",
"X. c #52E8DF",
"o. c #64E2DC",
"O. c #6AE3DD",
"+. c #60E8DF",
"@. c #79E2DE",
"#. c #4DEAE2",
"$. c #5CEAE3",
"%. c #49F0E9",
"&. c #56F1EB",
"*. c #58F1E8",
"=. c #65EDE5",
"-. c #72E7E0",
";. c #78EEE9",
":. c #62F2EB",
">. c #6CF2EB",
",. c #7CF5F0",
"<. c #848484",
"1. c #8A8A8A",
"2. c #939393",
"3. c #9A9A9A",
"4. c #A3A3A3",
"5. c #ACACAC",
"6. c #B5B5B5",
"7. c #B9B9B9",
"8. c #80DDD9",
"9. c #8FE7E5",
"0. c #86E8E4",
"q. c #8DEBE7",
"w. c #87EDE8",
"e. c #8FEDEA",
"r. c #94E8E5",
"t. c #98EAE4",
"y. c #9AEEEB",
"u. c #84F1EC",
"i. c #9FF0ED",
"p. c #80F5F0",
"a. c #89F6F3",
"s. c #9FF7F5",
"d. c #ACF6F3",
"f. c #A4F9F5",
"g. c #B9F4F0",
"h. c #B8FBF9",
"j. c #C9F8F6",
"k. c #CCFBFA",
"l. c None",
/* pixels */
"l.l.l.l.l.l.l.l.l.l.l.l.l.l.l.l.l.l.l.l.l.l.l.l.l.l.l.l.l.l.l.l.l.l.l.l.l.l.l.l.l.l.l.l.l.l.l.l.l.l.l.l.l.l.l.l.l.l.l.l.l.",
"l.^ j._ > > 2 ( 4 s l.l.l.l.l.l.l.l.l.l.l.l.l.l.l.l.l.l.l.l.l.l.l.l.l.l.l.l.l.l.l.l.l.l.l.l.l.l.l.l.l.l.l.l.l.l.l.l.l.l.l.",
"l.l.~ g.n 2 0 _ ' i l.l.l.l.l.l.l.l.l.l.l.l.l.l.l.l.l.l.l.l.l.l.l.l.l.l.l.l.l.l.l.l.l.l.l.l.l.l.l.l.l.l.l.l.l.l.l.l.l.l.l.",
"l.l.s o.i.u 0 D t l.l.l.l.l.l.l.l.l.l.l.l.l.l.l.l.l.l.l.l.l.l.l.l.l.l.l.l.l.l.l.l.l.l.l.l.l.l.l.l.l.l.l.l.l.l.l.l.l.l.l.l.",
"l.l.l.] r.-.6 D u l.l.l.l.l.l.l.l.l.l.l.l.l.l.l.l.l.l.l.l.l.l.l.l.l.l.l.l.l.l.l.l.l.l.l.l.l.l.l.l.l.l.l.l.l.l.l.l.l.l.l.l.",
"l.l.l.l.Q y.o.v b > l.l.l.l.l.l.l.l.l.l.l.l.l.l.l.l.l.l.l.l.l.l.l.l.l.l.l.l.l.l.l.l.l.l.l.l.l.l.l.l.l.l.l.l.l.l.l.l.l.l.l.",
"l.l.l.l.5 Z q./ ( 6 l.` l.l.l.l.l.l.l.l.l.l.l.l.l.l.l.l.l.l.l.l.l.l.l.l.l.l.l.l.l.l.l.l.l.l.l.l.l.l.l.l.l.l.l.l.l.l.l.l.l.",
"l.l.l.l.l.t ( d.D u p 8.l.l.l.l.l.l.l.l.l.l.l.l.l.l.l.l.l.l.l.l.l.l.l.l.l.l.l.l.l.l.l.l.l.l.l.l.l.l.l.l.l.l.l.l.l.l.l.l.l.",
"l.l.E 1 > 2  .d.S 9 Q l.l.l.l.l.l.l.l.l.l.l.l.l.l.l.l.l.l.l.l.l.l.l.l.l.l.l.l.l.l.l.l.l.l.l.l.l.l.l.l.l.l.l.l.l.l.l.l.l.l.",
"l.2 r Z 2 9 / k.U q O.l.l.l.l.l.l.l.l.l.l.l.l.l.l.l.l.l.l.l.l.l.l.l.l.l.l.l.l.l.l.l.l.l.l.l.l.l.l.l.l.l.l.l.l.l.l.l.l.l.l.",
"l.m e M w g j k.;...V 4 l.l.l.l.l.l.l.l.l.l.l.l.l.l.l.l.l.l.l.l.l.l.l.l.l.l.l.l.l.l.l.l.l.l.l.l.l.l.l.l.l.l.l.l.l.l.l.l.l.",
"l.X.N z g g h h.#.$.y 3 l.l.l.l.l.l.l.l.l.l.l.l.l.l.l.l.l.l.l.l.l.l.l.l.l.l.l.l.l.l.l.l.l.l.l.l.l.l.l.l.l.l.l.l.l.l.l.l.l.",
"l./ ..j h h F f.*.=.e < 1 E [ l.l.l.l.l.l.l.l.l.l.l.l.l.l.<.6.6.7.3.# l.l.l.l.l.l.l.l.l.l.l.l.l.l.l.l.l.l.l.l.l.l.l.l.l.l.",
"l.l =.S j x G p.f.P g 9 1 9.l.l.l.l.l.l.l.l.l.l.l.l.l.+ 4.7.7.7.7.6.6.- l.l.l.l.l.l.l.l.l.l.l.l.l.l.l.l.l.l.l.l.l.l.l.l.l.",
"l.9 O.B c h F a.%.F h k t.] l.l.l.l.l.l.l.l.l.l.l.l.l.4.7.7.6.4.6.6.6.6.* l.l.l.l.l.l.l.l.l.l.l.l.l.l.l.l.l.l.l.l.l.l.l.l.",
"l.a 3 u ..Y G &.%.H h A w.l.l.l.l.l.l.l.l.l.l.l.l.l.1.6.7.7.4.3.5.7.6.6.2.l.l.l.l.l.l.l.l.l.l.l.l.l.l.l.l.l.l.l.l.l.l.l.l.",
"l.l.l.l.> w #.K >.H K =.| d l.l.l.l.l.l.l.l.l.l.l.l.5.7.7.4.5.7.5.5.7.7.5.l.l.l.l.l.l.l.l.l.l.l.l.l.l.l.l.l.l.l.l.l.l.l.l.",
"l.l.l.l.l.2 w J *.F ,.u.v l.l.l.l.l.l.l.l.l.l.l.l.l.1.; & * * 5.<.4.<.2.3.O l.l.l.l.l.l.l.l.l.l.l.l.l.l.l.l.l.l.l.l.l.l.l.",
"l.l.l.l.l.l.2 L #.T >.e 2 l.l.l.l.l.l.l.l.l.l.l.l.* = # . o 2.7.; * <.; 4.= * l.l.l.l.l.l.l.l.l.l.l.l.l.l.l.l.l.l.l.l.l.l.",
"l.l.l.l.l.l.l.u I u.S 9 > l.l.l.l.l.l.l.l.l.l.l.l.% 2.$ $ % 4.7.5.2.6.6.6.= * l.l.l.l.l.l.l.l.l.l.l.l.l.l.l.l.l.l.l.l.l.l.",
"l.l.l.l.l.l.l.: r e o.2 l.l.l.l.l.l.l.l.l.l.l.l.l.1.1.6.6.2.5.3.6.3.7.6.4.; l.l.l.l.l.l.l.l.l.l.l.l.l.l.l.l.l.l.l.l.l.l.l.",
"l.l.l.l.l.l.l.l.l.t W p l.l.l.l.l.l.l.l.l.l.l.l.l.l.- 6.6.7.7.6.6.6.7.7.1.l.l.l.l.l.l.l.l.l.l.l.l.l.l.l.l.l.l.l.l.l.l.l.l.",
"l.l.l.l.l.l.l.l.l.l.l.~ 7 l.l.l.l.l.l.l.l.l.l.l.l.l.l.3.6.6.2.; <.6.7.5.+ l.l.l.l.l.l.l.l.l.l.l.l.l.l.l.l.l.l.l.l.l.l.l.l.",
"l.l.l.l.l.l.l.l.l.l.l.l.q.l.l.l.l.l.l.l.l.l.l.l.l.l.l.+ 3.6.7.6.6.7.5.$ l.l.l.l.l.l.l.l.l.l.l.l.l.l.l.l.l.l.l.l.l.l.l.l.l.",
"l.l.l.l.l.l.l.l.l.l.l.l.0.@.l.l.l.l.l.l.l.l.l.l.l.l.l.l.. $ & ; ; $ @ . l.l.l.l.l.l.l.l.l.l.l.l.l.l.l.l.l.l.l.l.l.l.l.l.l.",
"l.l.l.l.l.l.l.l.l.l.l.l.l.8 l.l.l.l.l.l.l.l.l.l.l.l.l.o @ @ O o o + % # . l.l.l.l.l.l.l.l.l.l.l.l.l.l.l.l.l.l.l.l.l.l.l.l.",
"l.l.l.l.l.l.l.l.l.l.l.l.l.l.l.% l.l.l.l.l.l.l.l.l.l.@ @ # $ @ . o @ % $ + + l.l.l.l.l.l.l.l.l.l.l.l.l.l.l.l.l.l.l.l.l.l.l.",
"l.l.l.l.l.l.l.l.l.l.l.l.l.l.l.l.% O l.l.l.l.@ % & & % + # $ @ o o # % $ + # % % # l.l.l.l.l.l.l.l.l.l.l.l.l.l.l.l.l.l.l.l.",
"l.l.l.l.l.l.l.l.l.l.l.l.l.l.l.l.l.# * @ * * & % % % $ + @ $ # O o $ % & O # # % % % * % <.- l.l.l.l.l.l.l.l.l.l.l.l.l.l.l.",
"l.l.l.l.l.l.l.l.l.l.l.l.l.l.l.l.l.l.l.. # $ % % $ $ @ O # % # O o $ % * O @ % # % $ $ @ * $ l.l.l.l.l.l.l.l.l.l.l.l.l.l.l.",
"l.l.l.l.l.l.l.l.l.l.l.l.l.l.l.l.l.l.l.. @ % & $ $ # @ X # % # O o # % * O + # % $ % % o . l.l.l.l.l.l.l.l.l.l.l.l.l.l.l.l.",
"l.l.l.l.l.l.l.l.l.l.l.l.l.l.l.l.l.l.l.l.X & $ $ % @ o o # % % O o # & * @ . @ $ % & % X l.l.l.l.l.l.l.l.l.l.l.l.l.l.l.l.l.",
"l.l.l.l.l.l.l.l.l.l.l.l.l.l.l.l.l.l.l.l.. + # % # o l.o # & % o O # * & $ l.O @ # & & X l.l.l.l.l.l.l.l.l.l.l.l.l.l.l.l.l.",
"l.l.l.l.l.l.l.l.l.l.l.l.l.l.l.l.l.l.l.l.l.X % # o l.l.O # & $ O o @ * % & l.l.. + # O l.l.l.l.l.l.l.l.l.l.l.l.l.l.l.l.l.l.",
"l.l.l.l.l.l.l.l.l.l.l.l.l.l.l.l.l.l.l.l.l.l.o l.l.l.l.+ # % $ o O @ = % * l.l.l.l.o   l.l.l.l.l.l.l.l.l.l.l.l.l.l.l.l.l.l.",
"l.l.l.l.l.l.l.l.l.l.l.l.l.l.l.l.l.l.l.l.l.l.l.l.l.l.l.+ $ % $ o O + = % = l.l.l.l.l.l.l.l.l.l.l.l.l.l.l.l.l.l.l.l.l.l.l.l.",
"l.l.l.l.l.l.l.l.l.l.l.l.l.l.l.l.l.l.l.l.l.l.l.l.l.l.l.$ $ % $ o O + = % - + l.l.l.l.l.l.l.l.l.l.l.l.l.l.l.l.l.l.l.l.l.l.l.",
"l.l.l.l.l.l.l.l.l.l.l.l.l.l.l.l.l.l.l.l.l.l.l.l.l.l.l.$ $ $ # o O O * % = # l.l.l.l.l.l.l.l.l.l.l.l.l.l.l.l.l.l.l.l.l.l.l.",
"l.l.l.l.l.l.l.l.l.l.l.l.l.l.l.l.l.l.l.l.l.l.l.l.l.l.l.# % $ # o O O % % * % l.l.l.l.l.l.l.l.l.l.l.l.l.l.l.l.l.l.l.l.l.l.l.",
"l.l.l.l.l.l.l.l.l.l.l.l.l.l.l.l.l.l.l.l.l.l.l.l.l.l.% @ % # # o O O % % & * l.l.l.l.l.l.l.l.l.l.l.l.l.l.l.l.l.l.l.l.l.l.l.",
"l.l.l.l.l.l.l.l.l.l.l.l.l.l.l.l.l.l.l.l.l.l.l.l.l.l.% @ % # # o O o % % $ - l.l.l.l.l.l.l.l.l.l.l.l.l.l.l.l.l.l.l.l.l.l.l.",
"l.l.l.l.l.l.l.l.l.l.l.l.l.l.l.l.l.l.l.l.l.l.l.l.l.l.& @ % # $ O O X % % # ; + l.l.l.l.l.l.l.l.l.l.l.l.l.l.l.l.l.l.l.l.l.l.",
"l.l.l.l.l.l.l.l.l.l.l.l.l.l.l.l.l.l.l.l.l.l.l.l.l.l.# # # # % o O X $ % # ; @ l.l.l.l.l.l.l.l.l.l.l.l.l.l.l.l.l.l.l.l.l.l.",
"l.l.l.l.l.l.l.l.l.l.l.l.l.l.l.l.l.l.l.l.l.l.l.l.l.l.& # @ $ % O o X $ % # - % l.l.l.l.l.l.l.l.l.l.l.l.l.l.l.l.l.l.l.l.l.l.",
"l.l.l.l.l.l.l.l.l.l.l.l.l.l.l.l.l.l.l.l.l.l.l.l.l.* % # @ % # o o X # % # & = O l.l.l.l.l.l.l.l.l.l.l.l.l.l.l.l.l.l.l.l.l.",
"l.l.l.l.l.l.l.l.l.l.l.l.l.l.l.l.l.l.l.l.l.l.l.l.l.1.% # @ & + O o . @ % $ $ ; # l.l.l.l.l.l.l.l.l.l.l.l.l.l.l.l.l.l.l.l.l.",
"l.l.l.l.l.l.l.l.l.l.l.l.l.l.l.l.l.l.l.l.l.l.l.l.l.4.@ @ @ * O o o X O % % # - % l.l.l.l.l.l.l.l.l.l.l.l.l.l.l.l.l.l.l.l.l.",
"l.l.l.l.l.l.l.l.l.l.l.l.l.l.l.l.l.l.l.l.l.l.l.l.<.& @ @ # - X o o X O $ % @ & * + l.l.l.l.l.l.l.l.l.l.l.l.l.l.l.l.l.l.l.l.",
"l.l.l.l.l.l.l.l.l.l.l.l.l.l.l.l.l.l.l.l.l.l.l.l.l.l.o o O @     l.l.l.X l.l.l.l.l.l.l.l.l.l.l.l.l.l.l.l.l.l.l.l.l.l.l.l.l.",
"l.l.l.l.l.l.l.l.l.l.l.l.l.l.l.l.l.l.l.l.l.l.l.l.l.l.l.l.l.l.l.l.l.l.l.l.l.l.l.l.l.l.l.l.l.l.l.l.l.l.l.l.l.l.l.l.l.l.l.l.l.",
"l.l.l.l.l.l.l.l.l.l.l.l.l.l.l.l.l.l.l.l.l.l.l.l.l.l.l.l.l.l.l.l.l.l.l.l.l.l.l.l.l.l.l.l.l.l.l.l.l.l.l.l.l.l.l.l.l.l.l.l.l.",
"l.l.l.l.l.l.l.l.l.l.l.l.l.l.l.l.l.l.l.l.l.l.l.l.l.l.l.l.l.l.l.l.l.l.l.l.l.l.l.l.l.l.l.l.l.l.l.l.l.l.l.l.l.l.l.l.l.l.l.l.l.",
"l.l.l.l.l.l.l.l.l.l.l.l.l.l.l.l.l.l.l.l.l.l.l.l.l.l.l.l.l.l.l.l.l.l.l.l.l.l.l.l.l.l.l.l.l.l.l.l.l.l.l.l.l.l.l.l.l.l.l.l.l.",
"l.l.l.l.l.l.l.l.l.l.l.l.l.l.l.l.l.l.l.l.l.l.l.l.l.l.l.l.l.l.l.l.l.l.l.l.l.l.l.l.l.l.l.l.l.l.l.l.l.l.l.l.l.l.l.l.l.l.l.l.l.",
"l.l.l.l.l.l.l.l.l.l.l.l.l.l.l.l.l.l.l.l.l.l.l.l.l.l.l.l.l.l.l.l.l.l.l.l.l.l.l.l.l.l.l.l.l.l.l.l.l.l.l.l.l.l.l.l.l.l.l.l.l.",
"l.l.l.l.l.l.l.l.l.l.l.l.l.l.l.l.l.l.l.l.l.l.l.l.l.l.l.l.l.l.l.l.l.l.l.l.l.l.l.l.l.l.l.l.l.l.l.l.l.l.l.l.l.l.l.l.l.l.l.l.l.",
"l.l.l.l.l.l.l.l.l.l.l.l.l.l.l.l.l.l.l.l.l.l.l.l.l.l.l.l.l.l.l.l.l.l.l.l.l.l.l.l.l.l.l.l.l.l.l.l.l.l.l.l.l.l.l.l.l.l.l.l.l.",
"l.l.l.l.l.l.l.l.l.l.l.l.l.l.l.l.l.l.l.l.l.l.l.l.l.l.l.l.l.l.l.l.l.l.l.l.l.l.l.l.l.l.l.l.l.l.l.l.l.l.l.l.l.l.l.l.l.l.l.l.l.",
"l.l.l.l.l.l.l.l.l.l.l.l.l.l.l.l.l.l.l.l.l.l.l.l.l.l.l.l.l.l.l.l.l.l.l.l.l.l.l.l.l.l.l.l.l.l.l.l.l.l.l.l.l.l.l.l.l.l.l.l.l.",
"l.l.l.l.l.l.l.l.l.l.l.l.l.l.l.l.l.l.l.l.l.l.l.l.l.l.l.l.l.l.l.l.l.l.l.l.l.l.l.l.l.l.l.l.l.l.l.l.l.l.l.l.l.l.l.l.l.l.l.l.l.",
"l.l.l.l.l.l.l.l.l.l.l.l.l.l.l.l.l.l.l.l.l.l.l.l.l.l.l.l.l.l.l.l.l.l.l.l.l.l.l.l.l.l.l.l.l.l.l.l.l.l.l.l.l.l.l.l.l.l.l.l.l."
};
