/* XPM */
static char *result[] = {
/* columns rows colors chars-per-pixel */
"61 61 135 2 ",
"   c #020306",
".  c #080807",
"X  c #060609",
"o  c #0A0708",
"O  c #0B0A0A",
"+  c #130D0B",
"@  c #1B0E0C",
"#  c #14110B",
"$  c #1A150C",
"%  c #1E180C",
"&  c #150F10",
"*  c #161312",
"=  c #1A1413",
"-  c #1C1812",
";  c #1F1319",
":  c #1C1B1D",
">  c #24130E",
",  c #28150F",
"<  c #231C0E",
"1  c #2C1711",
"2  c #251C16",
"3  c #23161C",
"4  c #221D1C",
"5  c #28191F",
"6  c #341A12",
"7  c #3A1D14",
"8  c #2A210F",
"9  c #2C2213",
"0  c #25201F",
"q  c #312711",
"w  c #342911",
"e  c #3A2D13",
"r  c #3F3114",
"t  c #2D1C23",
"y  c #292222",
"u  c #312927",
"i  c #3D2A25",
"p  c #37222A",
"a  c #3C242D",
"s  c #352B2A",
"d  c #382E2C",
"f  c #3C312D",
"g  c #3A3636",
"h  c #432116",
"j  c #4C2518",
"k  c #502719",
"l  c #53281A",
"z  c #5B2C1C",
"x  c #433415",
"c  c #483716",
"v  c #4B3A16",
"b  c #4F3D18",
"n  c #513F18",
"m  c #602E1D",
"M  c #66311E",
"N  c #69321F",
"B  c #422923",
"V  c #562D20",
"C  c #4C342C",
"Z  c #4A2C36",
"A  c #403431",
"S  c #463936",
"D  c #493C37",
"F  c #4D3E3B",
"G  c #543B31",
"H  c #51303B",
"J  c #574319",
"K  c #5C481E",
"L  c #4F403C",
"P  c #53423E",
"I  c #614C2B",
"U  c #6E4B3E",
"Y  c #7C4430",
"T  c #695331",
"R  c #5F3844",
"E  c #554540",
"W  c #584742",
"Q  c #5D4B46",
"!  c #614E48",
"~  c #744F42",
"^  c #65524B",
"/  c #6A554F",
"(  c #7A5244",
")  c #6E5952",
"_  c #725C55",
"`  c #7C645C",
"'  c #835949",
"]  c #866A4B",
"[  c #9A644F",
"{  c #806756",
"}  c #82695F",
"|  c #906250",
" . c #977756",
".. c #846A61",
"X. c #8A6E64",
"o. c #8B7066",
"O. c #8F7268",
"+. c #97796E",
"@. c #9A7C6F",
"#. c #9D7D72",
"$. c #A28276",
"%. c #AF8572",
"&. c #A68579",
"*. c #A9877A",
"=. c #AB887C",
"-. c #F89E6D",
";. c #F8A67A",
":. c #F8A97E",
">. c #B28E81",
",. c #BA9486",
"<. c #BD9789",
"1. c #C1998B",
"2. c #C89F91",
"3. c #CFA58B",
"4. c #CDA394",
"5. c #D1A796",
"6. c #DAAA95",
"7. c #D2A798",
"8. c #D5AA99",
"9. c #DBAE9D",
"0. c #DEB19F",
"q. c #F9B28E",
"w. c #F6B99C",
"e. c #FABB9E",
"r. c #DFB2A1",
"t. c #E3B4A2",
"y. c #E7B8A7",
"u. c #EABAA7",
"i. c #ECBCA9",
"p. c #F0BFAC",
"a. c #F3C1AE",
"s. c #F7C4B1",
"d. c #FAC6B3",
"f. c #FBC8B4",
"g. c None",
/* pixels */
"g.g.g.g.g.g.g.g.g.g.g.g.g.g.g.g.g.g.g.g.g.g.g.g.g.g.g.g.g.g.g.g.g.g.g.g.g.g.g.g.g.g.g.g.g.g.g.g.g.g.g.g.g.g.g.g.g.g.g.g.g.",
"g.g.g.g.g.g.g.g.g.g.g.g.g.g.g.g.g.g.g.g.g.g.g.g.g.g.g.g.g.g.g.g.g.g.g.g.g.g.g.g.g.g.g.g.g.g.g.g.g.g.g.g.g.g.g.g.g.g.g.g.g.",
"g.g.g.g.g.g.g.g.g.g.g.g.g.g.g.g.g.g.g.g.g.g.g.g.g.g.g.g.g.g.g.g.g.g.g.g.g.g.g.g.g.g.g.g.g.g.g.g.g.g.g.g.g.g.g.g.g.g.g.g.g.",
"g.g.g.g.g.g.g.g.g.g.g.g.g.g.g.g.g.g.g.g.g.g.g.g.g.g.g.g.g.g.g.g.g.g.g.g.g.g.g.g.g.g.g.g.g.g.g.g.g.g.g.g.g.g.g.g.g.g.g.g.g.",
"g.g.g.g.g.g.g.g.g.g.g.g.g.g.g.g.g.g.g.g.g.g.g.g.g.g.g.g.g.g.g.g.g.g.g.g.g.g.g.g.g.g.g.g.g.g.g.g.g.g.g.g.g.g.g.g.g.g.g.g.g.",
"g.g.g.g.g.g.g.g.g.g.g.g.g.g.g.g.g.g.g.g.g.g.g.g.g.g.g.g.g.g.g.g.g.g.g.g.g.g.g.g.g.g.g.g.g.g.g.g.g.g.g.g.g.g.g.g.g.g.g.g.g.",
"g.g.g.g.g.g.g.g.g.g.g.g.g.g.g.g.g.g.g.g.g.g.g.g.g.g.g.g.g.g.g.g.g.g.g.g.g.g.g.g.g.g.g.g.g.g.g.g.g.g.g.g.g.g.g.g.g.g.g.g.g.",
"g.g.g.g.g.g.g.g.g.g.g.g.g.g.g.g.g.g.g.g.g.g.g.g.g.g.g.g.g.g.g.g.g.g.g.g.g.g.g.g.g.g.g.g.g.g.g.g.g.g.g.g.g.g.g.g.g.g.g.g.g.",
"g.g.g.g.g.g.g.g.g.g.g.g.g.g.g.g.g.g.g.g.g.g.g.g.g.g.g.g.g.g.g.g.g.g.g.g.g.g.g.g.g.g.g.g.g.g.g.g.g.g.g.g.g.g.g.g.g.g.g.g.g.",
"g.g.g.g.g.g.g.g.g.g.g.g.g.g.g.g.g.g.g.g.g.g.g.g.g.g.g.g.g.g.g.g.g.g.g.g.g.g.g.g.g.g.g.g.g.g.g.g.g.g.g.g.g.g.g.g.g.g.g.g.g.",
"g.g.g.g.g.g.g.g.g.g.g.g.g.g.g.g.g.g.g.g.g.g.g.g.g.g.g.g.g.g.g.g.g.g.g.g.g.          g.g.g.g.g.g.g.g.g.g.g.g.g.g.g.g.g.g.g.",
"g.g.g.g.g.g.g.g.g.g.g.g.g.g.g.g.g.g.g.g.g.g.g.g.g.g.g.g.g.g.g.g.g.g.g.. % q x r r w < #   g.g.g.g.g.g.g.g.g.g.g.g.g.g.g.g.",
"g.g.g.g.g.g.g.g.g.g.g.g.g.g.g.g.g.g.g.g.g.g.g.g.g.g.g.g.g.    # 8 < $ c J J J J J J J J v <   g.g.g.g.g.g.g.g.g.g.g.g.g.g.",
"g.g.g.g.g.g.g.g.g.g.g.g.g.g.g.g.g.g.g.g.g.g.g.g.g.g.g.  # e J J J J J J J J J J J J J J J J v #   g.g.g.g.g.g.g.g.g.g.g.g.",
"g.g.g.g.g.g.g.g.g.g.g.g.g.g.g.g.g.g.g.g.g.g.g.g.g.g.  q J J J J J J J J J J J J J J J J J J J J 8   g.g.g.g.g.g.g.g.g.g.g.",
"g.g.g.g.g.g.g.g.g.g.g.g.g.g.g.g.g.g.g.g.g.g.g.g.g.  q J J J J J J J J J J J J J J J J J J J J J J 8   g.g.g.g.g.g.g.g.g.g.",
"g.g.g.g.g.g.g.g.g.g.g.g.g.g.g.g.g.g.g.g.g.g.g.g.  < J J J J J J J J J J J J J J J J J J J J J J J J $ g.g.g.g.g.g.g.g.g.g.",
"g.g.g.g.g.g.g.g.g.g.g.g.g.g.g.g.g.g.g.g.g.g.g.g.O b J J J J J J J J J J J J J J J J J J J J J J J J c   g.g.g.g.g.g.g.g.g.",
"g.g.g.g.g.g.g.g.g.g.g.g.g.g.g.g.g.g.g.g.g.g.g.  q J J J J J J J J J J J J J J J J J J J J J J J J J J 8   g.g.g.g.g.g.g.g.",
"g.g.g.g.g.g.g.g.g.g.g.g.g.g.g.g.g.g.g.g.g.g.g.O J J J J J J x   % v J J J J J J J J J J J J J J J J J n   g.g.g.g.g.g.g.g.",
"g.g.g.g.g.g.g.g.g.g.g.g.g.g.g.g.g.g.g.g.g.g.g.< J J J J J J O 6.X.- b J J J r J J J J J J J J J J r J J % g.g.g.g.g.g.g.g.",
"g.g.g.g.g.g.g.g.g.g.g.g.g.g.g.g.g.g.g.g.g.g.  e J J # J J e P e.q.*.$ J J J # r J J J J q J J J J 9 q J r   g.g.g.g.g.g.g.",
"g.g.g.g.g.g.g.g.g.g.g.g.g.g.g.g.g.g.g.g.g.g.  x J x $ J J $ %.-.;.f.+.# J J < . J J J J O $ J J J r < J J   g.g.g.g.g.g.g.",
"g.g.g.g.g.g.g.g.g.g.g.g.g.g.g.g.g.g.g.g.g.g.  c < x $ J J 2 f.:.d.f.d.^ q J % Q # J J J # g e J J b # J J # g.g.g.g.g.g.g.",
"g.g.g.g.g.g.g.g.g.g.g.g.g.g.g.g.g.g.g.g.g.g.  O # b # J r Q f.w.a.f.f.u.- J # r.} O v J # 5.# J J v # J J % g.g.g.g.g.g.g.",
"g.g.g.g.g.g.g.g.g.g.g.g.g.g.g.g.g.g.g.g.g.g.g.g.# J O J < =.3.J x T  .u.$.# f f.f.` # 9 X K +.$ J r % q + O g.g.g.g.g.g.g.",
"g.g.g.g.g.g.g.g.g.g.g.g.g.g.g.g.g.g.g.g.g.g.g.g.+ J $ x # a._ P o.Q 9 ] a.+.r.f.f.I 8 ^ ) f $.g r q q r   g.g.g.g.g.g.g.g.",
"g.g.g.g.g.g.g.g.g.g.g.g.g.g.g.g.g.g.g.g.g.g.g.g.. J q . Q ! 1.f.8.a.0.L i.f.f.f.9.L y.y.a.f.` ` 2   x q . g.g.g.g.g.g.g.g.",
"g.g.g.g.g.g.g.g.g.g.g.g.g.g.g.g.g.g.g.g.g.g.g.g.  c 9 E ,.^ f...  0 f.*.*.f.f.f.^ 9.5.* O 4.f.R y.Q x % g.g.g.g.g.g.g.g.g.",
"g.g.g.g.g.g.g.g.g.g.g.g.g.g.g.g.g.g.g.g.g.g.g.g.g.+ 8 D L ,.f.L     u.0.s ` ` ` S f.=.    X.f.) ` d $   g.g.g.g.g.g.g.g.g.",
"g.g.g.g.g.g.g.g.g.g.g.g.g.g.g.g.g.g.g.g.g.g.g.g.g.  X ^ +.$.f.7.S o.f.5.^ 4.9.8.L f.a.P D 9.d.^ =.0 y   g.g.g.g.g.g.g.g.g.",
"g.g.g.g.g.g.g.g.g.g.g.g.g.g.g.g.g.g.g.g.g.g.g.g.g.  _ u a.P a.f.f.f.f.^ 8.f.f.f.+.>.f.f.f.f.u.P s.u ..g.g.g.g.g.g.g.g.g.g.",
"g.g.g.g.g.g.g.g.g.g.g.g.g.g.g.g.g.g.g.g.g.g.g.g.g.g.    *.*.Q r.d.p.) ..d.f.f.f.s.F <.s.d.8.F 5.}     g.g.g.g.g.g.g.g.g.g.",
"g.g.g.g.g.g.g.g.g.g.g.g.g.g.g.g.g.g.g.g.g.g.            = #.4.Q F Q >.d.d.` *...d.u.` F E _ r...  g.g.g.g.g.g.g.g.g.g.g.g.",
"g.g.g.g.g.g.g.g.g.g.g.g.g.g.g.g.g.g.g.g.g.g.                s #.i.f.f.f.d.i.<.d.f.d.d.f.i.#.s   g.g.g.g.g.g.g.g.g.g.g.g.g.",
"g.g.g.g.g.g.g.g.g.g.g.g.g.g.g.g.g.g.g.g.g.g.                    X g _ ..$.#.>.#.*...Q u O   g.g.g.g.g.g.g.g.g.g.g.g.g.g.g.",
"g.g.g.g.g.g.g.g.g.g.g.g.g.g.g.g.g.g.g.g.g.g.g.                                        g.g.g.g.g.g.g.g.g.g.  g.g.g.g.g.g.g.",
"g.g.g.g.g.g.g.g.g.g.g.g.g.g.g.g.g.g.g.g.g.g.g.                                        g.g.g.g.g.g.    = C & g.g.g.g.g.g.g.",
"g.g.g.g.g.g.g.g.g.g.g.g.g.g.g.g.g.g.g.g.g.g.g.                                          g.    & i ~ | ~ i O g.g.g.g.g.g.g.",
"g.g.g.g.g.g.g.g.g.g.g.g.g.g.g.g.g.g.g.g.g.g.g.g.                                    O : X G ' ( C *   X g.g.g.g.g.g.g.g.g.",
"g.g.g.g.g.g.g.g.g.g.g.g.g.g.g.g.g.g.g.g.g.g.g.g.                                    g y ) + X   g.g.g.g.g.g.g.g.g.g.g.g.g.",
"g.g.g.g.g.g.g.g.g.g.g.g.g.g.g.g.g.g.g.g.g.g.g.g.                      o 2 G ~ U &   O O.E g.g.g.g.g.g.g.g.g.g.g.g.g.g.g.g.",
"g.g.g.g.g.g.g.g.g.g.g.g.g.g.g.g.g.g.g.g.g.g.g.g.g.                ; H t i i &     g.g.    g.g.g.g.g.g.g.g.g.g.g.g.g.g.g.g.",
"g.g.g.g.g.g.g.g.g.g.g.g.g.g.    + + @       g.                X p R R 3   g.g.g.g.g.g.g.g.g.g.g.g.g.g.g.g.g.g.g.g.g.g.g.g.",
"g.g.g.g.g.g.g.g.g.g.g.g.. , j M N N N M l h + i V ~           ; R R Z   g.g.g.g.g.g.g.g.g.g.g.g.g.g.g.g.g.g.g.g.g.g.g.g.g.",
"g.g.g.g.g.g.g.g.g.g.  1 z N N N N N N N N N h C Y [ *           t p X g.g.g.g.g.g.g.g.g.g.g.g.g.g.g.g.g.g.g.g.g.g.g.g.g.g.",
"g.g.g.g.g.g.g.g.g.X 6 h 7 N N N N N N N N N m * B = o   g.g.        g.g.g.g.g.g.g.g.g.g.g.g.g.g.g.g.g.g.g.g.g.g.g.g.g.g.g.",
"g.g.g.g.g.g.g.g.g.    @ h N N N N N N N N N j   g.g.g.g.g.g.g.    g.g.g.g.g.g.g.g.g.g.g.g.g.g.g.g.g.g.g.g.g.g.g.g.g.g.g.g.",
"g.g.g.g.g.g.g.g.  @ j N N N N N N N N N N z o g.g.g.g.g.g.g.g.g.g.g.g.g.g.g.g.g.g.g.g.g.g.g.g.g.g.g.g.g.g.g.g.g.g.g.g.g.g.",
"g.g.g.g.g.g.g.g.o 6 7 h j N N N N N N N j O g.g.g.g.g.g.g.g.g.g.g.g.g.g.g.g.g.g.g.g.g.g.g.g.g.g.g.g.g.g.g.g.g.g.g.g.g.g.g.",
"g.g.g.g.g.g.g.g.g.g.  + 7 N N N N M k >   g.g.g.g.g.g.g.g.g.g.g.g.g.g.g.g.g.g.g.g.g.g.g.g.g.g.g.g.g.g.g.g.g.g.g.g.g.g.g.g.",
"g.g.g.g.g.g.g.g.g.g.  O > , 1 > @ o   g.g.g.g.g.g.g.g.g.g.g.g.g.g.g.g.g.g.g.g.g.g.g.g.g.g.g.g.g.g.g.g.g.g.g.g.g.g.g.g.g.g.",
"g.g.g.g.g.g.g.g.g.g.g.g.g.g.g.g.g.g.g.g.g.g.g.g.g.g.g.g.g.g.g.g.g.g.g.g.g.g.g.g.g.g.g.g.g.g.g.g.g.g.g.g.g.g.g.g.g.g.g.g.g.",
"g.g.g.g.g.g.g.g.g.g.g.g.g.g.g.g.g.g.g.g.g.g.g.g.g.g.g.g.g.g.g.g.g.g.g.g.g.g.g.g.g.g.g.g.g.g.g.g.g.g.g.g.g.g.g.g.g.g.g.g.g.",
"g.g.g.g.g.g.g.g.g.g.g.g.g.g.g.g.g.g.g.g.g.g.g.g.g.g.g.g.g.g.g.g.g.g.g.g.g.g.g.g.g.g.g.g.g.g.g.g.g.g.g.g.g.g.g.g.g.g.g.g.g.",
"g.g.g.g.g.g.g.g.g.g.g.g.g.g.g.g.g.g.g.g.g.g.g.g.g.g.g.g.g.g.g.g.g.g.g.g.g.g.g.g.g.g.g.g.g.g.g.g.g.g.g.g.g.g.g.g.g.g.g.g.g.",
"g.g.g.g.g.g.g.g.g.g.g.g.g.g.g.g.g.g.g.g.g.g.g.g.g.g.g.g.g.g.g.g.g.g.g.g.g.g.g.g.g.g.g.g.g.g.g.g.g.g.g.g.g.g.g.g.g.g.g.g.g.",
"g.g.g.g.g.g.g.g.g.g.g.g.g.g.g.g.g.g.g.g.g.g.g.g.g.g.g.g.g.g.g.g.g.g.g.g.g.g.g.g.g.g.g.g.g.g.g.g.g.g.g.g.g.g.g.g.g.g.g.g.g.",
"g.g.g.g.g.g.g.g.g.g.g.g.g.g.g.g.g.g.g.g.g.g.g.g.g.g.g.g.g.g.g.g.g.g.g.g.g.g.g.g.g.g.g.g.g.g.g.g.g.g.g.g.g.g.g.g.g.g.g.g.g.",
"g.g.g.g.g.g.g.g.g.g.g.g.g.g.g.g.g.g.g.g.g.g.g.g.g.g.g.g.g.g.g.g.g.g.g.g.g.g.g.g.g.g.g.g.g.g.g.g.g.g.g.g.g.g.g.g.g.g.g.g.g.",
"g.g.g.g.g.g.g.g.g.g.g.g.g.g.g.g.g.g.g.g.g.g.g.g.g.g.g.g.g.g.g.g.g.g.g.g.g.g.g.g.g.g.g.g.g.g.g.g.g.g.g.g.g.g.g.g.g.g.g.g.g."
};
