/* XPM */
static char *result[] = {
/* columns rows colors chars-per-pixel */
"61 61 134 2 ",
"   c #020306",
".  c #060608",
"X  c #090609",
"o  c #0C0A0A",
"O  c #120D0A",
"+  c #1A0F0C",
"@  c #15110B",
"#  c #1B130C",
"$  c #1F190D",
"%  c #120E11",
"&  c #151213",
"*  c #1A1416",
"=  c #1C1815",
"-  c #1A1718",
";  c #1E1919",
":  c #22120E",
">  c #2A160F",
",  c #211A0D",
"<  c #281F0F",
"1  c #201716",
"2  c #2B1610",
"3  c #221C17",
"4  c #23161C",
"5  c #241C1B",
"6  c #2B1E1C",
"7  c #341A12",
"8  c #3A1D14",
"9  c #2B220F",
"0  c #2E2410",
"q  c #2C2319",
"w  c #312611",
"e  c #352911",
"r  c #3B2E13",
"t  c #30211E",
"y  c #3D3014",
"u  c #2E1C23",
"i  c #301D25",
"p  c #252324",
"a  c #2D2523",
"s  c #332420",
"d  c #342A23",
"f  c #3D2B25",
"g  c #352C2A",
"h  c #3C312F",
"j  c #3F3331",
"k  c #3E3B3B",
"l  c #442116",
"z  c #4C2518",
"x  c #502619",
"c  c #582A1B",
"v  c #423314",
"b  c #4C3B17",
"n  c #4F3C18",
"m  c #513F18",
"M  c #622F1E",
"N  c #64301E",
"B  c #69321F",
"V  c #412D27",
"C  c #49332C",
"Z  c #452932",
"A  c #443734",
"S  c #463935",
"D  c #483A37",
"F  c #4B3D39",
"G  c #523930",
"H  c #5A3E34",
"J  c #55333E",
"K  c #58343F",
"L  c #6C3522",
"P  c #6C3927",
"I  c #574319",
"U  c #4F403C",
"Y  c #554334",
"T  c #52423D",
"R  c #634337",
"E  c #67463B",
"W  c #6E4B3F",
"Q  c #7F633E",
"!  c #5F3844",
"~  c #564641",
"^  c #584742",
"/  c #5C4B45",
"(  c #614E48",
")  c #734E40",
"_  c #66514B",
"`  c #69544F",
"'  c #7B5546",
"]  c #6F5953",
"[  c #735C55",
"{  c #776058",
"}  c #7B635A",
"|  c #855A4A",
" . c #895D4D",
".. c #81675F",
"X. c #81685F",
"o. c #8E7055",
"O. c #987856",
"+. c #846B61",
"@. c #8A6E65",
"#. c #8F7369",
"$. c #93766C",
"%. c #96796E",
"&. c #9C7D71",
"*. c #A18175",
"=. c #A68579",
"-. c #AB897D",
";. c #B08C7F",
":. c #F8A171",
">. c #B59183",
",. c #BA9587",
"<. c #C59C84",
"1. c #C19A8C",
"2. c #C79F90",
"3. c #D1A68E",
"4. c #CBA292",
"5. c #D1A797",
"6. c #D6AB91",
"7. c #D6AB9A",
"8. c #DAAE9D",
"9. c #DCB09F",
"0. c #F9AB83",
"q. c #FAB797",
"w. c #F9B89A",
"e. c #DFB1A1",
"r. c #E4B6A3",
"t. c #E8B8A7",
"y. c #ECBCAA",
"u. c #F1BFAC",
"i. c #F3C2AE",
"p. c #FBC5AF",
"a. c #F7C4B1",
"s. c #FAC7B2",
"d. c #FBC8B4",
"f. c None",
/* pixels */
"f.f.f.f.f.f.f.f.f.f.f.f.f.f.f.f.f.f.f.f.f.f.f.f.f.f.f.f.f.f.f.f.f.f.f.f.f.f.f.f.f.f.f.f.f.f.f.f.f.f.f.f.f.f.f.f.f.f.f.f.f.",
"f.f.f.f.f.f.f.f.f.f.f.f.f.f.f.f.f.f.f.f.f.f.f.f.f.f.f.f.f.f.f.f.f.f.f.f.f.f.f.f.f.f.f.f.f.f.f.f.f.f.f.f.f.f.f.f.f.f.f.f.f.",
"f.f.f.f.f.f.f.f.f.f.f.f.f.f.f.f.f.f.f.f.f.f.f.f.f.f.f.f.f.f.f.f.f.f.f.f.f.f.f.f.f.f.f.f.f.f.f.f.f.f.f.f.f.f.f.f.f.f.f.f.f.",
"f.f.f.f.f.f.f.f.f.f.f.f.f.f.f.f.f.f.f.f.f.f.f.f.f.f.f.f.f.f.f.f.f.f.f.f.f.f.f.f.f.f.f.f.f.f.f.f.f.f.f.f.f.f.f.f.f.f.f.f.f.",
"f.f.f.f.f.f.f.f.f.f.f.f.f.f.f.f.f.f.f.f.f.f.f.f.f.f.f.f.f.f.f.f.f.f.f.f.f.f.f.f.f.f.f.f.f.f.f.f.f.f.f.f.f.f.f.f.f.f.f.f.f.",
"f.f.f.f.f.f.f.f.f.f.f.f.f.f.f.f.f.f.f.f.f.f.f.f.f.f.f.f.f.f.f.f.f.f.f.f.f.f.f.f.f.f.f.f.f.f.f.f.f.f.f.f.f.f.f.f.f.f.f.f.f.",
"f.f.f.f.f.f.f.f.f.f.f.f.f.f.f.f.f.f.f.f.f.f.f.f.f.f.f.f.f.f.f.f.f.f.f.f.f.f.f.f.f.f.f.f.f.f.f.f.f.f.f.f.f.f.f.f.f.f.f.f.f.",
"f.f.f.f.f.f.f.f.f.f.f.f.f.f.f.f.f.f.f.f.f.f.f.f.f.f.f.f.f.f.f.f.f.f.f.f.f.f.f.f.f.f.f.f.f.f.f.f.f.f.f.f.f.f.f.f.f.f.f.f.f.",
"f.f.f.f.f.f.f.f.f.f.f.f.f.f.f.f.f.f.f.f.f.f.f.f.f.f.f.f.f.f.f.f.f.f.f.f.f.f.f.f.f.f.f.f.f.f.f.f.f.f.f.f.f.f.f.f.f.f.f.f.f.",
"f.f.f.f.f.f.f.f.f.f.f.f.f.f.f.f.f.f.f.f.f.f.f.f.f.f.f.f.f.f.f.f.f.f.f.f.f.f.f.f.f.f.f.f.f.f.f.f.f.f.f.f.f.f.f.f.f.f.f.f.f.",
"f.f.f.f.f.f.f.f.f.f.f.f.f.f.f.f.f.f.f.f.f.f.f.f.f.f.f.f.f.f.f.f.f.f.f.f.f.f.f.f.f.f.f.f.f.f.f.f.f.f.f.f.f.f.f.f.f.f.f.f.f.",
"f.f.f.f.f.f.f.f.f.f.f.f.f.f.f.f.f.f.f.f.f.f.f.f.f.f.f.f.f.f.f.f.f.f.f.f.f.f.f.f.f.f.f.f.f.f.f.f.f.f.f.f.f.f.f.f.f.f.f.f.f.",
"f.f.f.f.f.f.f.f.f.f.f.f.f.f.f.f.f.f.f.f.f.f.f.f.f.f.f.f.f.f.f.f.          f.    @ o     . f.f.f.f.f.f.f.f.f.f.f.f.f.f.f.f.",
"f.f.f.f.f.f.f.f.f.f.f.f.f.f.f.f.f.f.f.f.f.f.f.f.f.f.f.f.f.  X , e y v v y , v I I I I v 9 o   f.f.f.f.f.f.f.f.f.f.f.f.f.f.",
"f.f.f.f.f.f.f.f.f.f.f.f.f.f.f.f.f.f.f.f.f.f.f.f.f.f.f.f.  , m I I I I I I I I I I I I I I I y @   f.f.f.f.f.f.f.f.f.f.f.f.",
"f.f.f.f.f.f.f.f.f.f.f.f.f.f.f.f.f.f.f.f.f.f.f.f.f.f.f.  0 I I I I I I I I I I I I I I I I I I I w   f.f.f.f.f.f.f.f.f.f.f.",
"f.f.f.f.f.f.f.f.f.f.f.f.f.f.f.f.f.f.f.f.f.f.f.f.f.f.  9 I I I I I I I I I I I I I I I I I I I I I v X f.f.f.f.f.f.f.f.f.f.",
"f.f.f.f.f.f.f.f.f.f.f.f.f.f.f.f.f.f.f.f.f.f.f.f.f.f.$ I I I I I I I I I I I I I I I I I I I I I I I y   f.f.f.f.f.f.f.f.f.",
"f.f.f.f.f.f.f.f.f.f.f.f.f.f.f.f.f.f.f.f.f.f.f.f.f.X b I I I I I I I I I I I I I I I I I I I I I I I I 9   f.f.f.f.f.f.f.f.",
"f.f.f.f.f.f.f.f.f.f.f.f.f.f.f.f.f.f.f.f.f.f.f.f.  9 I I I I I I y $ n I I I I I I I I I I I I I I I I I O f.f.f.f.f.f.f.f.",
"f.f.f.f.f.f.f.f.f.f.f.f.f.f.f.f.f.f.f.f.f.f.f.f.. b I b v I I b 3 &.= b I I I I I I I I I I I I I I I I 0   f.f.f.f.f.f.f.",
"f.f.f.f.f.f.f.f.f.f.f.f.f.f.f.f.f.f.f.f.f.f.f.f.$ I I , y I I $ =.0.1.@ I I I I I I I I I I I I I I I I I X f.f.f.f.f.f.f.",
"f.f.f.f.f.f.f.f.f.f.f.f.f.f.f.f.f.f.f.f.f.f.f.f.9 w b @ I I r D 0.:.s.} 9 I I e 0 I I I I I I I I I I I I $ f.f.f.f.f.f.f.",
"f.f.f.f.f.f.f.f.f.f.f.f.f.f.f.f.f.f.f.f.f.f.f.f..   I X I I o 7.0.q.s.a.q b I y X I I I I I I I I I I m I e   f.f.f.f.f.f.",
"f.f.f.f.f.f.f.f.f.f.f.f.f.f.f.f.f.f.f.f.f.f.f.f.f.@ I o I y T d.w.p.d.d.&.9 I w X e I I I 3 0 I I I v # I b   f.f.f.f.f.f.",
"f.f.f.f.f.f.f.f.f.f.f.f.f.f.f.f.f.f.f.f.f.f.f.f.f., I O I @ 5.3.Q O.6.d.a.@ I $ -.- b I I @ o b I I b $ I I   f.f.f.f.f.f.",
"f.f.f.f.f.f.f.f.f.f.f.f.f.f.f.f.f.f.f.f.f.f.f.f.  9 I @ e D 7.T d q e Q r.[ 9 a i.,.@ I I o +.0 I I b @ I I o f.f.f.f.f.f.",
"f.f.f.f.f.f.f.f.f.f.f.f.f.f.f.f.f.f.f.f.f.f.f.f.f., I o & -.T 9.d.d.*.q <.8.U 8.d.i.Y O v 3 <.@ I I v $ I I o f.f.f.f.f.f.",
"f.f.f.f.f.f.f.f.f.f.f.f.f.f.f.f.f.f.f.f.f.f.f.f.f.. v g a.S r.e.A / i.#.=.d.d.d.d.3.0 3 a @ o.^ w I 9 e v m o f.f.f.f.f.f.",
"f.f.f.f.f.f.f.f.f.f.f.f.f.f.f.f.f.f.f.f.f.f.f.f.f.  . - D { d.@.    &.i./ d.d.d.d.^ ,.d.d.e.~ =.@ I @ n O X   f.f.f.f.f.f.",
"f.f.f.f.f.f.f.f.f.f.f.f.f.f.f.f.f.f.f.f.f.f.f.f.f.  U ^ 4.X.d.1.o & 9.i.g *.4.a.@.-.a.F a 8.y.U [ O , I   f.f.f.f.f.f.f.f.",
"f.f.f.f.f.f.f.f.f.f.f.f.f.f.f.f.f.f.f.f.f.f.f.f.f.f.- - y.T d.d.t.i.d.2.( >.X.^ p d.>.    } d.[ 9.{ w v   f.f.f.f.f.f.f.f.",
"f.f.f.f.f.f.f.f.f.f.f.f.f.f.f.f.f.f.f.f.f.              >.@.+.d.d.d.t.A e.d.d.d.~ d.t.- o 2.d.{ [ A 0 o f.f.f.f.f.f.f.f.f.",
"f.f.f.f.f.f.f.f.f.f.f.f.f.f.f.f.f.f.f.f.f.              - e.#.U ] ` U 8.d.d.d.d.[ 5.d.a.u.d.d.D ,.%   f.f.f.f.f.f.f.f.f.f.",
"f.f.f.f.f.f.f.f.f.f.f.f.f.f.f.f.f.f.f.f.f.f.              & } i.8.t.d.d.>.4.r.u.e.S e.d.d.d.} @.-.F ~ f.f.f.f.f.f.f.f.f.f.",
"f.f.f.f.f.f.f.f.f.f.f.f.f.f.f.f.f.f.f.f.f.f.                  u %.8.d.d.a.#.$.t.d.e.~ ~ ] D %.9.; ;   f.f.f.f.f.f.f.f.f.f.",
"f.f.f.f.f.f.f.f.f.f.f.f.f.f.f.f.f.f.f.f.f.f.                      o j } ,.e.d.d.d.a.d.a.r.5.[ & f.f.f.f.f.f.f.f.f.f.f.f.f.",
"f.f.f.f.f.f.f.f.f.f.f.f.f.f.f.f.f.f.f.f.f.f.                              . & g U U ! j -     f.f.f.f.f.f.f.f.f.f.f.f.f.f.",
"f.f.f.f.f.f.f.f.f.f.f.f.f.f.f.f.f.f.f.f.f.f.                                        f.f.f.f.f.f.f.f.f.f.f.f.f.f.f.f.f.f.f.",
"f.f.f.f.f.f.f.f.f.f.f.f.f.f.f.f.f.f.f.f.f.f.f.                                    f.f.f.f.f.f.f.f.f.f.f.f.f.f.f.f.f.f.f.f.",
"f.f.f.f.f.f.f.f.f.f.f.f.        f.f.f.f.f.f.f.                                        f.f.f.  f.          f.f.f.f.f.f.f.f.",
"f.f.f.f.f.f.f.f.f.  X 2 8 l l 8 + X   f.f.f.f.                                    p   o 6 f G H ) ' | E   f.f.f.f.f.f.f.f.",
"f.f.f.f.f.f.f.  > x B B B B B B B B l O       X               X 4 * 6 C H ) &   k ; _ q H C s q & X     f.f.f.f.f.f.f.f.f.",
"f.f.f.f.f.f.  X : # l B B B B B B B B B : R P H           . u J ! u 5 f 6 * o     ] } . X f.f.f.f.f.f.f.f.f.f.f.f.f.f.f.f.",
"f.f.f.f.f.f.  + > l M B B B B B B B B B 7 W L  .          u ! ! ! o   f.f.f.f.f.f.    f.f.f.f.f.f.f.f.f.f.f.f.f.f.f.f.f.f.",
"f.f.f.f.f.  8 N B B B B B B B B B B B B > 5 O 4           X J Z X f.f.f.f.f.f.f.f.f.f.f.f.f.f.f.f.f.f.f.f.f.f.f.f.f.f.f.f.",
"f.f.f.f.f.f.    O > B B B B B B B B B 8   f.f.f.f.f.f.f.    o   f.f.f.f.f.f.f.f.f.f.f.f.f.f.f.f.f.f.f.f.f.f.f.f.f.f.f.f.f.",
"f.f.f.f.f.f.f.  + z B B B B B B B c >   f.f.f.f.f.f.f.f.    f.f.f.f.f.f.f.f.f.f.f.f.f.f.f.f.f.f.f.f.f.f.f.f.f.f.f.f.f.f.f.",
"f.f.f.f.f.f.f.f.  X : 7 l l l 8 +   f.f.f.f.f.f.f.f.f.f.f.f.f.f.f.f.f.f.f.f.f.f.f.f.f.f.f.f.f.f.f.f.f.f.f.f.f.f.f.f.f.f.f.",
"f.f.f.f.f.f.f.f.f.f.f.          f.f.f.f.f.f.f.f.f.f.f.f.f.f.f.f.f.f.f.f.f.f.f.f.f.f.f.f.f.f.f.f.f.f.f.f.f.f.f.f.f.f.f.f.f.",
"f.f.f.f.f.f.f.f.f.f.f.f.f.f.f.f.f.f.f.f.f.f.f.f.f.f.f.f.f.f.f.f.f.f.f.f.f.f.f.f.f.f.f.f.f.f.f.f.f.f.f.f.f.f.f.f.f.f.f.f.f.",
"f.f.f.f.f.f.f.f.f.f.f.f.f.f.f.f.f.f.f.f.f.f.f.f.f.f.f.f.f.f.f.f.f.f.f.f.f.f.f.f.f.f.f.f.f.f.f.f.f.f.f.f.f.f.f.f.f.f.f.f.f.",
"f.f.f.f.f.f.f.f.f.f.f.f.f.f.f.f.f.f.f.f.f.f.f.f.f.f.f.f.f.f.f.f.f.f.f.f.f.f.f.f.f.f.f.f.f.f.f.f.f.f.f.f.f.f.f.f.f.f.f.f.f.",
"f.f.f.f.f.f.f.f.f.f.f.f.f.f.f.f.f.f.f.f.f.f.f.f.f.f.f.f.f.f.f.f.f.f.f.f.f.f.f.f.f.f.f.f.f.f.f.f.f.f.f.f.f.f.f.f.f.f.f.f.f.",
"f.f.f.f.f.f.f.f.f.f.f.f.f.f.f.f.f.f.f.f.f.f.f.f.f.f.f.f.f.f.f.f.f.f.f.f.f.f.f.f.f.f.f.f.f.f.f.f.f.f.f.f.f.f.f.f.f.f.f.f.f.",
"f.f.f.f.f.f.f.f.f.f.f.f.f.f.f.f.f.f.f.f.f.f.f.f.f.f.f.f.f.f.f.f.f.f.f.f.f.f.f.f.f.f.f.f.f.f.f.f.f.f.f.f.f.f.f.f.f.f.f.f.f.",
"f.f.f.f.f.f.f.f.f.f.f.f.f.f.f.f.f.f.f.f.f.f.f.f.f.f.f.f.f.f.f.f.f.f.f.f.f.f.f.f.f.f.f.f.f.f.f.f.f.f.f.f.f.f.f.f.f.f.f.f.f.",
"f.f.f.f.f.f.f.f.f.f.f.f.f.f.f.f.f.f.f.f.f.f.f.f.f.f.f.f.f.f.f.f.f.f.f.f.f.f.f.f.f.f.f.f.f.f.f.f.f.f.f.f.f.f.f.f.f.f.f.f.f.",
"f.f.f.f.f.f.f.f.f.f.f.f.f.f.f.f.f.f.f.f.f.f.f.f.f.f.f.f.f.f.f.f.f.f.f.f.f.f.f.f.f.f.f.f.f.f.f.f.f.f.f.f.f.f.f.f.f.f.f.f.f.",
"f.f.f.f.f.f.f.f.f.f.f.f.f.f.f.f.f.f.f.f.f.f.f.f.f.f.f.f.f.f.f.f.f.f.f.f.f.f.f.f.f.f.f.f.f.f.f.f.f.f.f.f.f.f.f.f.f.f.f.f.f.",
"f.f.f.f.f.f.f.f.f.f.f.f.f.f.f.f.f.f.f.f.f.f.f.f.f.f.f.f.f.f.f.f.f.f.f.f.f.f.f.f.f.f.f.f.f.f.f.f.f.f.f.f.f.f.f.f.f.f.f.f.f."
};
