/* XPM */
static char *result[] = {
/* columns rows colors chars-per-pixel */
"60 61 58 1 ",
"  c #5D5538",
". c #5F5B3F",
"X c #69643E",
"o c #6C6A3F",
"O c #645C45",
"+ c #655D4A",
"@ c #666144",
"# c #696343",
"$ c #67604B",
"% c #6B634C",
"& c #70664F",
"* c #71694D",
"= c #6D6551",
"- c #716753",
"; c #726B54",
": c #766E59",
"> c #786D58",
", c #737254",
"< c #7C7756",
"1 c #7F7C53",
"2 c #77765B",
"3 c #7A735C",
"4 c #7E7A5E",
"5 c #7E7661",
"6 c #7E7A62",
"7 c #807957",
"8 c #827B65",
"9 c #857E6B",
"0 c #887E6A",
"q c #86815F",
"w c #878165",
"e c #898263",
"r c #87806C",
"t c #8A826D",
"y c #91856E",
"u c #8D8472",
"i c #8E8875",
"p c #928673",
"a c #948976",
"s c #908778",
"d c #958C7A",
"f c #9A8E7C",
"g c #9D917E",
"h c #9E9581",
"j c #9F9987",
"k c #A29583",
"l c #A39986",
"z c #A59C89",
"x c #A99C8A",
"c c #A7A08D",
"v c #AAA28E",
"b c #AEA591",
"n c #B2A593",
"m c #B1A995",
"M c #B6AE99",
"N c #BBB29D",
"B c #BBB3A0",
"V c None",
/* pixels */
"VVVVVVVVVVVVVVVVVVVVVVVVVVVVVVVVVVVVVVVVVVVVVVVVVVVVVVVVVVVV",
"VVVVVVVVVVVVVVVVVVVVVVVVVVVVVVVVVVVVVVVVVVVVVVVVVVVVVVVVVVVV",
"VVVVVVVVVVVVVVVVVVVVVVVVVVVVVVVVVVVVVVVVVVVVVVVVVVVVVVVVVVVV",
"VVVVVVVVVVVVVVVVVVVVVVVVVVVVVVVVVVVVVVVVVVVVVVVVVVVVVVVVVVVV",
"VVVVVVVVVVVVVVVVVVVVVVVVVVVVVVVVVVVVVVVVVVVVVVVVVVVVVVVVVVVV",
"VVVVVVVVVVVVVVVVVVVVVVVVVVVVVVVVVVVVVVVVVVVVVVVVVVVVVVVVVVVV",
"VVVVVVVVVVVVVVVVVVVVVVVVVVVVVVVVVVVVVVVVVVVVVVVVVVVVVVVVVVVV",
"VVVVVVVVVVVVVVVVVVVVVVVVVVVVVVVVVVVVVVVVVVVVVVVVVVVVVVVVVVVV",
"VVVVVVVVVVVVVVVVVVVVVVVVVVVVVVVVVVVVVVVVVVVVVVVVVVVVVVVVVVVV",
"VVVVVVVVVVVVVVVVVVVVVVVVVVVVVVVVVVVVVVVVVVVVVVVVVVVVVVVVVVVV",
"VVVVVVVVVVVVVVVVVVVVVVVVVVVVVVVVVVVVVVVVVVVVVVVVVVVVVVVVVVVV",
"VVVVVVVVVVVVVVVVVVVVVVVVVVVVVVVVVVVVVVVVVVVVVVVVVVVVVVVVVVVV",
"VVVVVVVVVVVVVVVVVV;33&*#.VVVVVVVVVVVVVVVVVVVVVVVVVVVVVVVVVVV",
"VVVVVVVVVVVVVVVVVt9-&-*&&&-%%%@O VVVVVVVVVVVVVVVVVVVVVVVVVVV",
"VVVVVVVVVVVVVVVV6uidtr8533>;;;;-*;&&&%%O##VVVVVVVVVVVVVVVVVV",
"VVVVVVVVVVVVVVVVuudzbMmmbccllgdatw08887<>,reVVVVVVVVVVVVVVVV",
"VVVVVVVVVVVVVVV6uujzfvnMNNNNNNNNNNNMnngggyyeVVVVVVVVVVVVVVVV",
"VVVVVVVVVVVVVVVtuuzlyyvvvnnnnvnnnnnnnnMMMyui1VVVVVVVVVVVVVVV",
"VVVVVVVVVVVVVVVuudcgyygvnnnnnnnnxnnnngnnMdtteVVVVVVVVVVVVVVV",
"VVVVVVVVVVVVVV8uulzayyyxnnnnnnnnnnnnnnggMjttuVVVVVVVVVVVVVVV",
"VVVVVVVVVVVVVVruizlyyyafnnnnnnnnnnnnnxkkbbtru1VVVVVVVVVVVVVV",
"VVVVVVVVVVVVVVttdcgyyyyaknnnnnMnnnnnnxkgcbdrtwVVVVVVVVVVVVVV",
"VVVVVVVVVVVVV;uujzayyyaafknnnMnnnMnnvkgkjMhrrtVVVVVVVVVVVVVV",
"VVVVVVVVVVVVV2uizlyyaaaaf0nnnnnnnnnnxkkkgMcurtVVVVVVVVVVVVVV",
"VVVVVVVVVVVVV8idxkf0000sf0knnnnnnnnnlkkggcmdrreVVVVVVVVVVVVV",
"VVVVVVVVVVVVV9ugxxkkxfk0ff0knnMnbnmbklkkgjmj99tVVVVVVVVVVVVV",
"VVVVVVVVVVVVVtuknkkkxxhh00ffxnnnmbnlxkkxjgbvu9tVVVVVVVVVVVVV",
"VVVVVVVVVVVVVuizbkkkxxxkxf0f0nnnmmvlkkkklgzmd9rwVVVVVVVVVVVV",
"VVVVVVVVVVVVVuszvkkxxxxxxjhshknnmnzlxgxglglml99tVVVVVVVVVVVV",
"VVVVVVVVVVVVV4ilbxkxxxxxxxjjh0knnvlllcgxglgbbr9rVVVVVVVVVVVV",
"VVVVVVVVVVVVVVwfxbkxxxxxxxjxkhsxncllllggglgvbd99eVVVVVVVVVVV",
"VVVVVVVVVVVVVVVrlvvlzxxxxxxxjxkkvljlcgfgcggcmj9rtVVVVVVVVVVV",
"VVVVVVVVVVVVVVVVilbbllxxzzzzzzljljlzkh0kkkkhxxu9tVVVVVVVVVVV",
"VVVVVVVVVVVVVVVV2dzbxlxxzcxzlzzllljjkhdkkkkfxns99VVVVVVVVVVV",
"VVVVVVVVVVVVVVVVV6dzmzlxxzxxlzzjljljh0pfkkkklmh99eVVVVVVVVVV",
"VVVVVVVVVVVVVVVVVV6fcbxxxxxxzzzzlljlha0fkkhfgvc09wVVVVVVVVVV",
"VVVVVVVVVVVVVVVVVVVwhzbzzzxxzlzzllljsppfllgggzvi9wVVVVVVVVVV",
"VVVVVVVVVVVVVVVVVVVVrhcvzzxxzzlzzjjfpy0aggggfjbg99VVVVVVVVVV",
"VVVVVVVVVVVVVVVVVVVVVuhcczxxzzzzljjsp0phgggggcvi49VVVVVVVVVV",
"VVVVVVVVVVVVVVVVVVVVV,ilcvzxxzzzlzlhupfkkggggva%%#VVVVVVVVVV",
"VVVVVVVVVVVVVVVVVVVVVV2ijzblxlzlllxkayggggfgxa*+#VVVVVVVVVVV",
"VVVVVVVVVVVVVVVVVVVVVVV8sjbxlxlxllkkgfgggggka3+#VVVVVVVVVVVV",
"VVVVVVVVVVVVVVVVVVVVVVVV4slbxlllllxkkggggggp;O#VVVVVVVVVVVVV",
"VVVVVVVVVVVVVVVVVVVVVVVVV9alcxlllkkkkgggggp-O@VVVVVVVVVVVVVV",
"VVVVVVVVVVVVVVVVVVVVVVVVVV9djvckkkkkgggga9=O@VVVVVVVVVVVVVVV",
"VVVVVVVVVVVVVVVVVVVVVVVVVVVralclkkhhggga8+O@VVVVVVVVVVVVVVVV",
"VVVVVVVVVVVVVVVVVVVVVVVVVVVV0alczhkklgy>OOXVVVVVVVVVVVVVVVVV",
"VVVVVVVVVVVVVVVVVVVVVVVVVVVVV9sjzxxla9=++XVVVVVVVVVVVVVVVVVV",
"VVVVVVVVVVVVVVVVVVVVVVVVVVVVVVwuhzhr:$+$VVVVVVVVVVVVVVVVVVVV",
"VVVVVVVVVVVVVVVVVVVVVVVVVVVVVVV99i>%++#VVVVVVVVVVVVVVVVVVVVV",
"VVVVVVVVVVVVVVVVVVVVVVVVVVVVVVVV09:$%VVVVVVVVVVVVVVVVVVVVVVV",
"VVVVVVVVVVVVVVVVVVVVVVVVVVVVVVVVV<<VVVVVVVVVVVVVVVVVVVVVVVVV",
"VVVVVVVVVVVVVVVVVVVVVVVVVVVVVVVVVVVVVVVVVVVVVVVVVVVVVVVVVVVV",
"VVVVVVVVVVVVVVVVVVVVVVVVVVVVVVVVVVVVVVVVVVVVVVVVVVVVVVVVVVVV",
"VVVVVVVVVVVVVVVVVVVVVVVVVVVVVVVVVVVVVVVVVVVVVVVVVVVVVVVVVVVV",
"VVVVVVVVVVVVVVVVVVVVVVVVVVVVVVVVVVVVVVVVVVVVVVVVVVVVVVVVVVVV",
"VVVVVVVVVVVVVVVVVVVVVVVVVVVVVVVVVVVVVVVVVVVVVVVVVVVVVVVVVVVV",
"VVVVVVVVVVVVVVVVVVVVVVVVVVVVVVVVVVVVVVVVVVVVVVVVVVVVVVVVVVVV",
"VVVVVVVVVVVVVVVVVVVVVVVVVVVVVVVVVVVVVVVVVVVVVVVVVVVVVVVVVVVV",
"VVVVVVVVVVVVVVVVVVVVVVVVVVVVVVVVVVVVVVVVVVVVVVVVVVVVVVVVVVVV",
"VVVVVVVVVVVVVVVVVVVVVVVVVVVVVVVVVVVVVVVVVVVVVVVVVVVVVVVVVVVV"
};
